<?xml version="1.0" encoding="UTF-8" standalone="no"?>
<!-- Created with Inkscape (http://www.inkscape.org/) -->

<svg
   xmlns:dc="http://purl.org/dc/elements/1.1/"
   xmlns:cc="http://creativecommons.org/ns#"
   xmlns:rdf="http://www.w3.org/1999/02/22-rdf-syntax-ns#"
   xmlns:svg="http://www.w3.org/2000/svg"
   xmlns="http://www.w3.org/2000/svg"
   xmlns:sodipodi="http://sodipodi.sourceforge.net/DTD/sodipodi-0.dtd"
   xmlns:inkscape="http://www.inkscape.org/namespaces/inkscape"
   width="1250"
   height="1250"
   viewBox="0 0 330.72916 330.72918"
   version="1.1"
   id="svg4501"
   inkscape:version="0.92.0 r15299"
   sodipodi:docname="stickerindex.svg"
   inkscape:export-filename="stickerindex.png"
   inkscape:export-xdpi="96"
   inkscape:export-ydpi="96">
  <defs
     id="defs4495" />
  <sodipodi:namedview
     id="base"
     pagecolor="#ffffff"
     bordercolor="#666666"
     borderopacity="1.0"
     inkscape:pageopacity="0.0"
     inkscape:pageshadow="2"
     inkscape:zoom="0.35"
     inkscape:cx="-194.28571"
     inkscape:cy="560"
     inkscape:document-units="px"
     inkscape:current-layer="layer2"
     showgrid="false"
     units="px"
     inkscape:snap-page="true"
     inkscape:window-width="1853"
     inkscape:window-height="1016"
     inkscape:window-x="67"
     inkscape:window-y="27"
     inkscape:window-maximized="1" />
  <metadata
     id="metadata4498">
    <rdf:RDF>
      <cc:Work
         rdf:about="">
        <dc:format>image/svg+xml</dc:format>
        <dc:type
           rdf:resource="http://purl.org/dc/dcmitype/StillImage" />
        <dc:title></dc:title>
      </cc:Work>
    </rdf:RDF>
  </metadata>
  <g
     inkscape:label="Bg"
     inkscape:groupmode="layer"
     id="layer1"
     transform="translate(0,33.729183)"
     sodipodi:insensitive="true">
    <rect
       style="display:inline;opacity:1;fill:#57ef84;fill-opacity:1;stroke:none;stroke-width:0.26458332;stroke-linecap:butt;stroke-linejoin:miter;stroke-miterlimit:4;stroke-dasharray:none;stroke-dashoffset:0;stroke-opacity:1"
       id="rect4167"
       width="330.72916"
       height="330.72916"
       x="-3.5527137e-15"
       y="-33.729183" />
  </g>
  <g
     inkscape:groupmode="layer"
     id="layer2"
     inkscape:label="Obj">
    <path
       style="fill:#ffffff;stroke-width:0.26458335"
       d="m 95.458326,262.5085 c -0.938252,-0.18762 -2.382623,-1.6465 -2.638168,-2.66467 -0.414597,-1.6519 0.137443,-9.12217 0.861737,-11.66107 2.596256,-9.10077 9.666085,-16.85413 18.283875,-20.05162 l 2.55957,-0.94968 0.003,-27.45052 -2.72132,-1.98438 C 102.24473,190.17306 94.463913,180.9743 89.189941,170.9575 77.70621,148.93899 77.187812,122.79431 87.789875,100.34682 92.034618,92.502084 97.00336,84.786146 102.86651,78.769722 c 11.7886,-12.078464 26.05012,-19.681468 42.70721,-22.767782 7.14336,-1.323563 12.03966,-1.110888 15.7474,0.684003 1.6114,0.780068 4.74228,3.906142 11.59792,11.580152 6.81194,7.625077 48.82527,54.148355 51.44606,57.068555 14.78529,16.47442 13.70246,14.87678 13.6617,20.1567 -0.3903,8.37563 -3.73965,16.98791 -7.07533,23.81482 -6.08211,12.36521 -15.72632,23.46799 -26.51996,30.53081 -8.95905,5.46349 -18.85973,10.35468 -29.2102,12.42263 -13.41978,2.58964 -27.86695,1.67931 -40.54141,-2.55457 l -4.27239,-1.42718 v 18.98442 l 1.2568,0.20097 c 1.35672,0.21695 7.01319,2.97406 8.69015,4.2358 5.67446,4.26946 9.383,9.56473 11.42855,16.31834 0.78293,2.58493 0.90465,3.56798 0.92514,7.47141 0.0163,3.11297 -0.10967,4.7446 -0.40983,5.30729 -0.98972,1.85526 0.37376,1.76995 -29.00149,1.81475 -14.91589,0.0228 -27.443214,-0.0233 -27.838504,-0.10234 z m 76.630264,-62.90025 c 4.9325,-0.86393 10.4893,-2.80803 16.73681,-5.85554 7.77565,-3.79293 12.42652,-7.16802 18.49077,-13.41861 5.76458,-5.94169 7.934,-9.02253 11.69299,-16.60544 4.67984,-9.44054 5.68283,-13.44041 4.04664,-16.13779 -0.92064,-1.51775 -1.63909,-1.69303 -5.24559,-1.27982 -10.9717,1.25709 -22.92564,-1.01393 -33.32849,-6.33177 -11.96092,-6.11431 -22.04473,-16.70289 -27.53524,-28.9136 -4.98825,-11.093694 -6.46711,-23.127288 -4.36138,-35.488881 1.01714,-5.971106 0.66434,-6.979975 -2.44093,-6.979975 -7.56429,0 -23.37153,6.782647 -31.77691,13.634995 -2.49874,2.037045 -8.53036,8.050016 -10.54084,10.508234 -5.11501,6.254139 -9.554809,14.869327 -12.274596,23.818177 -2.488705,8.18853 -2.868517,22.28659 -0.864004,32.07049 1.573821,7.68171 7.70688,20.513 12.79877,26.77697 3.64724,4.48678 10.84439,11.15444 14.81805,13.72788 5.47097,3.58818 11.53935,6.44984 17.69401,8.57055 10.23341,3.05265 20.96141,3.6901 32.08994,1.90413 z M 122.23844,142.4153 c -3.64922,-1.30393 -5.85984,-3.63712 -6.93271,-7.31712 -0.7034,-2.41271 -0.41564,-4.88365 0.87377,-7.50282 1.76465,-3.5845 5.07026,-5.57209 9.26707,-5.57209 4.2426,0 7.38519,1.91422 9.28394,5.65506 0.99505,1.9604 1.13403,2.54117 1.13403,4.7389 0,2.16292 -0.14825,2.80584 -1.08642,4.71152 -0.67378,1.36865 -1.57449,2.59339 -2.37149,3.22462 -3.02863,2.39872 -6.98203,3.2004 -10.16819,2.06193 z"
       id="path4857"
       inkscape:connector-curvature="0"
       sodipodi:nodetypes="ssssccccccssssccccsccssssssscsssssssssssssscccsssssssss" />
    <path
       inkscape:connector-curvature="0"
       id="path4859"
       d="m 201.55557,258.22968 c -0.80896,0.51097 -2.86099,0.45006 -3.74806,-0.11126 -1.4392,-0.91067 -6.18969,-6.70226 -7.4155,-9.04064 -4.39391,-8.38201 -4.61852,-18.87232 -0.58084,-27.12987 l 1.19925,-2.45259 -18.92183,-19.88707 17.39439,-4.75686 13.08873,13.75111 1.04891,-0.72092 c 1.13231,-0.77825 7.13036,-2.68101 9.21496,-2.92326 7.05379,-0.81971 13.3908,0.45901 19.52874,3.94061 2.34926,1.33257 3.1152,1.9607 5.82123,4.77398 2.15813,2.24353 3.19172,3.5123 3.36224,4.12682 0.56222,2.02619 -39.64987,40.21321 -39.99068,40.42847 z"
       style="fill:#ffffff;stroke-width:0.26458335"
       sodipodi:nodetypes="csssccccssssssc" />
    <path
       sodipodi:nodetypes="ccssssssssssssssssccccssssssssssssssssssss"
       inkscape:connector-curvature="0"
       id="path4863"
       d="m 248.76026,283.90567 c 1.52585,-0.60716 6.40633,-3.36865 7.78354,-4.40412 1.7404,-1.30852 3.70935,-3.12909 5.3081,-4.90805 7.60649,-8.46378 10.81638,-20.00866 8.66926,-31.18005 -0.36454,-1.89683 -1.23557,-5.0397 -1.49664,-5.4002 -0.091,-0.12556 -0.14999,-0.28825 -0.13123,-0.36142 0.0336,-0.13075 -0.68736,-1.89348 -1.27627,-3.12057 -0.16489,-0.34352 -0.76256,-1.42931 -1.32816,-2.41287 -3.85554,-6.70447 -9.31877,-11.70443 -16.36004,-14.97274 -3.01964,-1.40162 -5.21703,-1.86526 -7.06727,-1.49124 -0.80409,0.16256 -2.54999,1.19318 -6.46741,3.81782 -3.89246,2.60791 -7.16842,4.78121 -8.40779,5.57779 -0.57912,0.37223 -2.99821,1.97799 -5.37571,3.56835 -4.45838,2.98229 -8.36533,5.57559 -11.20551,7.43785 -0.89595,0.58749 -2.85304,1.88416 -4.34908,2.88155 -8.43993,5.6268 -7.77724,5.04113 -8.36092,7.38919 -0.34182,1.37492 -0.39931,1.94586 -0.38295,3.80189 0.0256,2.90183 0.22663,4.78442 0.80894,7.57441 1.29013,6.18136 4.30514,12.20833 8.29078,16.57332 3.35364,3.44599 7.19045,6.74532 11.54866,8.84283 5.66105,2.67888 12.17699,3.92149 18.28497,3.48694 3.79632,-0.33475 7.97745,-1.29323 11.51473,-2.70068 z m -26.96732,-6.04435 c -2.09075,-0.9456 -4.33549,-2.44181 -6.76103,-4.50646 -3.01882,-2.56966 -4.69835,-4.59775 -6.67749,-8.06318 -1.88132,-3.29409 -2.49306,-4.90877 -3.29716,-8.70277 -1.0011,-4.72347 -0.99038,-6.61307 0.0433,-7.62377 0.5816,-0.56869 0.92046,-0.56462 2.47405,0.0299 4.72638,1.80844 10.29082,2.16291 15.51409,0.98833 6.00559,-1.35051 11.688,-4.90081 15.51658,-9.69459 3.4784,-4.35523 5.50631,-9.52764 5.98062,-15.25416 0.2291,-2.76614 0.50069,-3.1737 1.87891,-2.81977 3.35732,0.86214 9.60009,5.67418 12.54972,9.6735 0.87685,1.18892 2.86858,4.54514 3.48075,5.86533 1.55742,3.35881 2.54599,7.68857 2.73321,11.97038 0.17126,3.91803 -1.26697,10.21853 -3.27177,14.33252 -1.57406,3.23005 -5.75855,8.22605 -8.73247,10.42587 -2.13016,1.5757 -6.08446,3.71475 -8.14145,4.40407 -0.56494,0.18929 -1.2349,0.4181 -1.48876,0.5084 -1.10231,0.39209 -5.3647,1.13456 -7.34133,1.27881 -1.94268,0.14176 -3.60411,0.0566 -6.10026,-0.31266 -1.59174,-0.23545 -6.79032,-1.78998 -8.35946,-2.4997 z"
       style="fill:#ffffff;stroke-width:0.26458335" />
  </g>
</svg>
